<svg xmlns="http://www.w3.org/2000/svg" width="28" height="28" fill="none" viewBox="0 0 28 28">
    <circle cx="14" cy="14" r="14" fill="#EDECF3"/>
    <path fill="#B0B2BB" fill-rule="evenodd" d="M15.4 16.566h1.308l.513 2.567h-1.309l-.513-2.567z" clip-rule="evenodd"/>
    <path fill="#B0B2BB" fill-rule="evenodd" d="M19.608 14.264l.77 3.85a1.924 1.924 0 0 1-1.886 2.302H9.509a1.925 1.925 0 0 1-1.888-2.302l.77-3.85a1.925 1.925 0 0 1 1.872-1.548 6.92 6.92 0 0 1-.113-1.266c0-2.124 1.59-3.867 3.85-3.867s3.85 1.743 3.85 3.867c0 .434-.051.856-.15 1.266.94 0 1.729.648 1.909 1.548zM10.278 14a.642.642 0 0 0-.629.516l-.41 2.05h1.807c.3 0 .561-.208.626-.502l.086-.388A5.872 5.872 0 0 1 10.653 14h-.374zm6.074 1.283h2.152l-.153-.767a.641.641 0 0 0-.629-.516h-.504a6.878 6.878 0 0 1-.866 1.283zm-3.9 3.85l-1.288-1.287c-.039.002-.078.003-.118.003H8.983l-.104.516a.642.642 0 0 0 .63.768h2.942zm2.54-4.27c1.042-1.046 1.575-2.201 1.575-3.413 0-1.472-1.073-2.578-2.567-2.578-1.493 0-2.566 1.106-2.566 2.578 0 1.482.513 2.658 1.51 3.594.175.164.445.368.808.613.091.06.21.057.298-.008.424-.32.739-.582.943-.787zm-.002 1.703h3.77l.36 1.8a.64.64 0 0 1-.628.767h-4.226l-1.853-1.853c.186-.188.335-.415.432-.67a5.02 5.02 0 0 0 1.002.552c.07.03.15.026.218-.009a5.77 5.77 0 0 0 .341-.19 7.38 7.38 0 0 0 .584-.397zM14 12.74a1.286 1.286 0 0 1-1.283-1.29c0-.711.575-1.288 1.283-1.288.71 0 1.284.577 1.284 1.289s-.575 1.289-1.284 1.289z" clip-rule="evenodd"/>
</svg>
