<svg xmlns="http://www.w3.org/2000/svg" width="24" height="24" fill="none" viewBox="0 0 24 24">
    <path fill="#F04B32" fill-rule="evenodd" d="M9 22a2 2 0 1 0 0-4 2 2 0 0 0 0 4zm9 0a2 2 0 1 0 0-4 2 2 0 0 0 0 4zM4.78 6.082A1.2 1.2 0 0 0 3.586 5H3a1 1 0 0 1-1-1V3a1 1 0 0 1 1-1h1.726C6.309 2 6.634 3.168 6.79 4.701l.03.295h2.152c.03 0 .059.002.088.004H19a3 3 0 0 1 2.98 3.331l-.56 6A2.998 2.998 0 0 1 18.44 17H8.58A3 3 0 0 1 5.6 14.331l-.819-8.25zm2.806 8.028a1 1 0 0 0 .994.89h9.86c.51 0 .934-.383.99-.89l.56-6c.004-.036.01-.073.01-.11a1 1 0 0 0-1-1H7.787a.8.8 0 0 0-.796.876l.595 6.234z" clip-rule="evenodd"/>
    <path fill="#fff" d="M20.214 1h2.55v7h-.96V1.87h-1.59V1z"/>
</svg>
