<svg xmlns="http://www.w3.org/2000/svg" width="360" height="172" fill="none" viewBox="0 0 360 172">
    <path fill="#FF9B94" d="M284.195 171.644L146.26 76.1a22 22 0 0 1-9.471-18.4l.659-45.872C137.542 5.268 142.886 0 149.447 0H358a2 2 0 0 1 2 2v168a2 2 0 0 1-2 2h-72.666a2 2 0 0 1-1.139-.356z"/>
    <mask id="a" width="224" height="192" x="136" y="-20" maskUnits="userSpaceOnUse">
        <path fill="#FF9B94" d="M283.533 171.642L137.487 70.026a2.001 2.001 0 0 1-.858-1.658l.701-86.384a2 2 0 0 1 2-1.984h217.673a2 2 0 0 1 2 2v188a2 2 0 0 1-2 2h-72.328c-.408 0-.807-.125-1.142-.358z"/>
    </mask>
    <g mask="url(#a)">
        <path fill="#FFA39D" d="M187.485 111h169.518a2 2 0 0 0 2-2V32.25a2 2 0 0 0-2-2h-24.488a2 2 0 0 1-2-2V6a2 2 0 0 0-2-2h-50.386a2 2 0 0 0-2 2v94.17a2 2 0 0 1-2 2h-32.258a2 2 0 0 1-2-2V20.835a2 2 0 0 0-2-2h-50.386a2 2 0 0 0-2 2V109a2 2 0 0 0 2 2z" opacity=".8"/>
        <rect width="13.961" height="15" x="214.404" y="45" fill="#FF9B94" rx="1"/>
        <path fill="#F27A72" d="M197.452 111h161.551v61H197.452z"/>
        <path fill="#EC7269" d="M199.446 112h159.557v6H199.446z"/>
    </g>
    <path fill="#F68178" d="M190.448 63.667C189.417 57.564 194.12 52 200.309 52h31.021c5.522 0 10 4.477 10 10v39c0 5.523-4.478 10-10 10h-31.191a2 2 0 0 1-1.972-1.667l-7.719-45.666z"/>
    <path fill="#EE665D" d="M195.434 63.667C194.403 57.564 199.106 52 205.294 52h31.021c5.523 0 10 4.477 10 10v39c0 5.523-4.477 10-10 10h-31.19a2 2 0 0 1-1.972-1.667l-7.719-45.666z"/>
    <path fill="#FEC7C2" d="M296.74 108.558c-1.106-.271-3.141 1.683-17.516-1.847l.499-9.711 8.476.5 12.466 3c5.648.807 9.064 4.854 10.294 5.763 1.654 1.225 3.825 3.617 3.674 4.234-.188.772-.376 1.544-7.199.687-6.824-.858-9.588-2.354-10.694-2.626z"/>
    <path fill="#DB371D" d="M257.748 71.5c3.49-16.5 4.025-17 4.025-17-.997 3 .036 25 1.496 42l28.883.5v11h-31.911c-13.962 0-5.984-20-2.493-36.5z"/>
    <path fill="#DB371D" d="M268.753 93.5C267.756 59 263.767 54 259.28 53l-3.491 57.5 14.959 1c0-1.333-1.544-2.407-1.995-18z"/>
    <path fill="#D03118" d="M262.77 103.5l-.499-35.5-2.991 30 3.49 5.5z"/>
    <path fill="#DB371D" d="M218.892 52.5c11.966-5 23.933-6.5 41.883 1l.997 58.5h-46.869l3.989-59.5z"/>
    <path fill="#D03118" d="M247.811 59l-5.484-4 5.983-5.5-.499 9.5zM242.327 55l-9.973-6.5 2.171 10.885a1 1 0 0 0 1.607.585l6.195-4.97zM225.374 67l-18.449 32.5 30.416 3 1.496-4.5-14.631-1.544a4 4 0 0 1-3.51-4.722L225.374 67z"/>
    <path fill="#DFE6E9" d="M269.096 110h-21.783c0-2.573 2.445-7.617 9.972-7 5.637.463 9.587 3.004 12.439 5.115.783.581.348 1.885-.628 1.885z"/>
    <path fill="#DA5951" d="M193.496 109h165.506v3H197.829l-4.333-3z"/>
    <path fill="#FF8D86" d="M183.49 113v55H74.798a2 2 0 0 1-2-2v-29.844a2 2 0 0 1 2-2h26.41a2 2 0 0 1 2 2v8.222a2 2 0 0 0 2 2h27.193V113a2 2 0 0 1 2-2h47.089a2 2 0 0 1 2 2z"/>
    <rect width="11.718" height="4.453" x="168.843" y="140.391" fill="#F37C75" rx="1"/>
    <path fill="#F37C75" d="M161.031 111h7.812v3.079a1 1 0 0 1-1.308.952l-2.291-.74a.994.994 0 0 0-.615 0l-2.291.74a1 1 0 0 1-1.307-.952V111zM130.759 113a2 2 0 0 1 2-2h9.671a2 2 0 0 1 2 2v33.625h-13.671V113z"/>
    <path fill="#FF8D86" d="M23.934 119a1 1 0 0 1 1-1h51.85a1 1 0 0 1 1 1v48h-53.85v-48z"/>
    <path fill="#FF9B94" d="M263.957 172H2a2 2 0 0 1-2-2v-60.197a22 22 0 0 1 16.815-21.38l93.64-22.709a16 16 0 0 1 13.009 2.486l141.648 100.167c1.592 1.126.795 3.633-1.155 3.633z"/>
    <path stroke="#C1CFD5" d="M264.266 104.5v4.5"/>
    <path fill="#FF8D86" d="M210.415 124v46H106.709a2 2 0 0 1-2-2v-24.5a2 2 0 0 1 2-2h25.04a2 2 0 0 1 2 2v6.292a2 2 0 0 0 2 2h25.879V124a2 2 0 0 1 2-2h44.787a2 2 0 0 1 2 2z"/>
    <rect width="11.19" height="3.75" x="196.428" y="146.75" fill="#F37C75" rx="1"/>
    <path fill="#F37C75" d="M188.476 122h7.978v3.584a1 1 0 0 1-1.334.942l-2.32-.824a.998.998 0 0 0-.669 0l-2.32.824a1 1 0 0 1-1.335-.942V122zM160.059 124a2 2 0 0 1 2-2h9.056a2 2 0 0 1 2 2v28h-13.056v-28z"/>
    <path fill="#FF8D86" d="M0 130a1 1 0 0 1 1-1h27.917a1 1 0 0 1 1 1v39H0v-39z"/>
    <path fill="#474955" d="M70.803 162h50.859v5H70.803z"/>
    <path fill="#FEC7C2" d="M233.532 49.495v-14.14c-.649-.286-1.991-.772-2.164-3-.217-2.785 3.035-3.319 3.895-3 1.732.643 1.515-9.213 2.164-7.927 1.385-.514 7.286-1.857 8.224-3.428l9.09 3.428c.721 6.713 1.039 20.397-3.463 21.425-3.636 0-3.968 5-3.679 7.499 0 0 1.089 4.434-6.269 4.648-7.359.214-7.798-5.505-7.798-5.505zM249.657 108.351c-.854-.084-2.223 2.226-13.314 1.14l1.56-7.179 8.193-.013 6.496-1.761a.945.945 0 0 1 .259-.034c5.207.065 14.148 3.922 13.409 4.496-.745.579-4.728-.647-6.95-1.407 1.343.946 4.014 3 3.951 3.645-.078.807-.157 1.614-5.354 1.92-5.198.306-7.397-.724-8.25-.807zM118.68 129.51c3.523-.208 9.949-6.859 14.094-12.263l-15.753-9.77c-.621 7.414-1.16 22.199 1.659 22.033z"/>
    <path fill="#DB371D" d="M113.705 86.484L117.672 81l.499.5 9.836 24.73-17.204 18.914 2.902-38.66z"/>
    <path fill="#D03118" d="M118.473 89.81c4.56 20.161 2.28 36.166 2.28 37.413 0 .998-1.52-24.527-2.28-37.413z"/>
    <path fill="#DB371D" d="M72.902 80.243c12.371-8.816 32.782-10.82 44.947 1.002l6.804 80.95S105.891 165 93.52 165c-12.37 0-22.473-2.805-22.473-2.805 0-25.447-1.237-62.115 1.855-81.952z"/>
    <path fill="#FFA000" fill-rule="evenodd" d="M75.228 168.829L77.69 139.6l1.06-43.852a1.995 1.995 0 0 1 1.993-1.951H97.9c4.21 0 12.86-1.076 16.829-1.6a2.019 2.019 0 0 1 2.268 1.814c1.983 21.347 3.274 38.73 4.267 52.106.718 9.671 1.281 17.246 1.837 22.712H75.228z" clip-rule="evenodd"/>
    <path fill="#D03118" d="M87.257 104c1.258 3.105 5.983 22.233 5.983 22.233s16.273-7.275 5.334 0c-10.94 7.275-19.07 4.939-19.07 4.939-3.109-3.118-2.901-6.186-4.56-22.863-.642-6.454 10.195-5.996 8.324-12.809 0 0 2.73 5.395 3.989 8.5z"/>
    <path fill="#B7C3C8" d="M136.39 97.843l.735.841a1 1 0 0 1 .162 1.06l-5.884 13.374a.998.998 0 0 1-.219.315l-6.355 6.18a.999.999 0 0 1-.822.275l-3.431-.43a1 1 0 0 1-.856-1.188l3.982-19.966a1 1 0 0 1 .98-.804h10.955c.289 0 .563.125.753.343z"/>
    <path fill="#DFE6E9" d="M132.544 119.805l4.703-19.617a1 1 0 0 0-.973-1.233h-10.541a1 1 0 0 0-.984.82l-3.574 19.617a1 1 0 0 0 .984 1.18h9.413a1 1 0 0 0 .972-.767z"/>
    <path fill="#FEC7C2" d="M126.971 114.337c-1.658.831 1.036 6.443 4.767 5.612 3.718-.829 9.657-5.673 5.804-14.342-3.331 1.908-10.598 5.839-10.778 6.651-.415 1.871 1.865 1.247.207 2.079z"/>
    <path fill="#D5F5FF" fill-rule="evenodd" d="M93.857 121.81c.1.02.163-.013.052-.028l-.052.028zm-1.113.594c-.64.441-1.616.989-3.33 1.213-.505.065-1.793.256-3.427.497-2.866.424-6.798 1.005-9.446 1.349l-.055-.111 15.139-4.424.737 1.681.382-.205z" clip-rule="evenodd"/>
    <path fill="#FEC7C2" d="M130.287 107.061c-1.036-.623-1.451-2.286 7.877-2.91 1.658.208.428 2.751-.208 2.91-.829.208-6.632.624-7.669 0z"/>
    <path fill="#DB371D" d="M74.737 125.768l16.997-5.197C85.404 96.881 80.776 82 72.872 80.248c-8.59 8.333-2.573 33.729 1.865 45.52z"/>
    <path fill="#F7B6B0" d="M131.531 111.842c.414 0 .829-2.079.207-2.91-2.073 1.247-6.426 4.281-6.426 5.612 0 1.33 1.382 2.632 2.073 3.117.829-.277 2.529-1.33 2.695-3.325 1.451-.624 1.036-2.494 1.451-2.494z"/>
    <path fill="#FEC7C2" d="M123.534 117.641c2.191-.496 6.45-1.116 4.961-3.099 2.414-1.038 3.45-3.606 3.451-5.195 0-1.054-7.048-.712-9.901-.506.496-1.239 1.687-3.47 2.977-4.462 1.613-1.239 3.846-3.346 1.613-3.346-4.268.893-11.537 10.411-15.506 14.501l-34.733 9.419c1.075 4.421 3.729 10.702 8.492 10.206 5.954-.62 16.565-5.992 27.233-12.809 1.241-.619 8.808-.371 11.413-4.709z"/>
    <path fill="#B7C3C8" d="M135.929 101.299a.958.958 0 0 0-1.894-.28l-.27 1.828a.957.957 0 0 0 1.894.279l.27-1.827z"/>
    <rect width=".83" height=".831" fill="#ABD4E4" rx=".415" transform="matrix(-.88313 .46913 .4671 .8842 135.289 100.618)"/>
    <rect width=".83" height=".831" fill="#ABD4E4" rx=".415" transform="matrix(-.88313 .46913 .4671 .8842 134.874 102.28)"/>
    <path fill="#2E2F37" d="M108.787 56.852c1.255-.712 5.653-6.013 4.398-13.852l-7.535-.401c.628 4.989 2.133 14.824 3.137 14.254z"/>
    <path fill="#FEC7C2" d="M89.553 63.127v14.14s.217 5.356 7.575 5.142c7.358-.214 6.493-4.285 6.493-4.285-.289-2.5.043-7.499 3.679-7.499 4.501-1.028 4.184-14.711 3.462-21.425l-9.089-3.428c-.938 1.572-3.16 4.843-4.545 5.357 0 2.356-1.948 3.642-2.597 3.856-.65.214-.695-.304-1.082-1.071-.65-1.286-.433 3.856-2.164 3.214-.86-.32-4.112.214-3.896 3 .173 2.227 1.515 2.713 2.164 2.999z"/>
    <path fill="#25282B" d="M89.371 40.388c-3.69.855-6.268 7.342-1.96 19.293 2.614-4.604 5.665-.658 6.1 2.192.436 0 .654-1.315 1.308-3.946.272-1.096 2.045-6.577 8.497-6.577 10.459 0 10.241-6.577 10.023-8.112-.218-1.535-9.369-8.989-23.968-2.85z"/>
    <path fill="#FFA000" d="M112.476 76.955l-2.951-1.48c.886 1.333 1.938 14.99.554 19.71 1.476.185 4.485.111 4.706-1.666.217-1.737.01-10.135-1.811-15.984a.974.974 0 0 0-.498-.58zM82.074 75.299l-1.382.594c-.665.285-.938 1.265-.62 1.915 1.71 3.498 4.855 12.7 4.65 16.822 1.478-.166 5.037 2.302 4.838.523-.192-1.718-2.194-13.775-6.334-19.553a.948.948 0 0 0-1.152-.301z"/>
    <rect width="9.972" height="11" x="281.219" y="76" fill="#FF9B94" rx="1"/>
    <path fill="#191B1C" d="M238.983 27.351c-1.026 2.777-3.449 4.944-6.6 4.616-.674-.947-2.023-3.503-2.023-6.155 0-3.314 0-9.942 3.541-9.942 5.564-9.942 22.871-1.264 23.883.63.405 3.787-1.137 7.553-2.992 8.5 0 0-1.966.394-11.394-.957-1.972-.282-3.724 1.44-4.415 3.308z"/>
    <path fill="#B3E8FF" d="M295.831 63.309A2 2 0 0 1 297.708 62h54.438a2 2 0 0 1 1.877 2.69l-13.622 37.001a2 2 0 0 1-1.877 1.309h-54.438a2 2 0 0 1-1.877-2.691l13.622-37z"/>
    <path stroke="#E39004" stroke-linecap="round" stroke-width="2" d="M93.74 105h18.448"/>
    <path fill="#DB371D" d="M204.931 74c7.479-21 13.96-22 16.454-22.5 3.988 2 4.436 15.654 3.49 18.5-.997 3-5.152 18.5-6.981 27l20.942 1v12.5h-30.415c-13.961 0-9.148-20.616-3.49-36.5z"/>
    <path fill="#DFE6E9" d="M227.369 29a3 3 0 0 1 3-3h1.983a1 1 0 0 1 1 1v8a1 1 0 0 1-1 1h-1.983a3 3 0 0 1-3-3v-4z"/>
    <path fill="#D1E0E7" d="M227.369 28.244A2.243 2.243 0 0 1 229.612 26c.413 0 .748.335.748.748v8.504a.748.748 0 0 1-.748.748 2.243 2.243 0 0 1-2.243-2.244v-5.512z"/>
    <path stroke="#DFE6E9" stroke-linecap="round" d="M232.354 35c3.852 6.676 9.147 6.259 13.962 5.737"/>
    <path fill="#DFE6E9" d="M296.828 64.309A2 2 0 0 1 298.705 63h54.438a2 2 0 0 1 1.877 2.69l-13.622 37.001a2 2 0 0 1-1.877 1.309h-54.438a2 2 0 0 1-1.877-2.691l13.622-37z"/>
    <path fill="#EC7269" d="M.997 170h267.258v2H1.997a1 1 0 0 1-1-1v-1z"/>
    <path fill="#DA5951" d="M.997 167h263.356l3.902 3H.997v-3z"/>
    <rect width="22.936" height="3" x="137.618" y="161" fill="#FFAEA9" fill-opacity=".4" rx="1"/>
    <path fill="#DF3F35" d="M158.46 167H122.571a.909.909 0 0 1 0-1.818h16.797c.278 0 .543-.116.733-.32l2.36-2.542a.998.998 0 0 1 .732-.32h19.317c.964 0 1.37 1.23.595 1.803l-4.05 3a.997.997 0 0 1-.595.197z"/>
    <path fill="#F26E66" d="M164.543 165h18.947v2h-18.947v-2z"/>
    <path stroke="#DF3F35" stroke-linecap="round" stroke-width=".5" d="M166.538 165v1M169.529 165v1M172.521 165v1M175.513 165v1M178.504 165v1M181.496 165v1"/>
    <path fill="#DF3F35" d="M144.54 163.059a.197.197 0 0 1 .141-.059h16.388a.2.2 0 0 1 .142.341l-1.596 1.6a.197.197 0 0 1-.141.059h-16.388a.2.2 0 0 1-.142-.341l1.596-1.6zM185.3 149.152l.432-.052.353 2.645-.432.052-.353-2.645z"/>
    <path fill="#DF3F35" d="M184.976 150.023l1.297-.156 2.133 16.013-1.297.157-2.133-16.014z"/>
    <path fill="#DF3F35" fill-rule="evenodd" d="M186.392 150.756l.259-.032v.001l.142-.018.948 7.118-.283.034-.788-5.914-.071.368-.207-1.557z" clip-rule="evenodd"/>
    <path fill="#DF3F35" d="M189.141 149.75h.665v15.75h-.665v-15.75zM189.141 149h.665v.75h-.665V149z"/>
    <path fill="#F26E66" d="M184.488 155.34c-.008-.185.127-.339.296-.339h7.385c.168 0 .303.154.296.339l-.447 11.041c-.014.347-.275.62-.592.62h-5.9c-.317 0-.578-.273-.592-.62l-.446-11.041z"/>
    <path fill="#EDF1FF" d="M1.71 153.361c0-.234.077-.454.25-.61 1.45-1.302 9.726-7.187 39.069-4.894 32.908 2.571 29.917 4.785 30.344 5.143.391.327-1.724 1.491-2.085 1.686a1.016 1.016 0 0 0-.101.062l-5.221 3.625c-.185.128-.408.19-.633.176l-60.686-3.777a1 1 0 0 1-.938-.998v-.413z"/>
    <rect width="71.8" height="14.571" y="152.571" fill="#F4483D" rx="1"/>
    <rect width="64.962" height="12.857" x="3.419" y="153.429" fill="#FF5348" rx="1"/>
    <path fill="#FF6F65" d="M35.046 134.714a1 1 0 0 1 1-1h1.419a1 1 0 0 1 1 1v13.571h-3.42v-13.571z"/>
    <rect width="30.772" height="12.857" x="21.369" y="126" fill="#FF6F65" rx="1"/>
    <rect width="24.931" height="10" x="23.934" y="127.571" fill="#FFAAA5" rx="1"/>
    <path fill="#DFE6E9" d="M274.238 107h33.906v2h-33.906z"/>
    <path fill="#C2D2D9" d="M274.238 107h27.922v2h-27.922z"/>
    <path fill="#C1CFD5" d="M274.238 107h16.953v2h-16.953zM312.632 92h12.465l-7.479 12h-13.463l8.477-12z"/>
    <path fill="#C1CFD5" d="M312.632 92h12.465l-3.49 12h-17.452l8.477-12z"/>
    <path fill="#DFE6E9" fill-rule="evenodd" d="M326.094 92h-13.463l-6.599 15h-4.866a1 1 0 0 0 0 2h20.936a1 1 0 0 0 0-2h-2.607l6.599-15z" clip-rule="evenodd"/>
    <path fill="#DB371D" d="M242.327 55s-6.482-4.5-8.975-9.5l-.998 3 3.491 11 6.482-4.5z"/>
    <path fill="#DB371D" d="M247.313 58l-4.986-3s3.073-2.451 3.988-4c.723-1.223.998-3 .998-3l1.496 1.5-1.496 8.5z"/>
    <path fill="#FFA000" fill-rule="evenodd" d="M229.955 49.068l13.501 29.633 7.643-28.553c.925.248 1.866.523 2.825.826L244.19 86.3l-17.192-36.57a46.697 46.697 0 0 1 2.957-.66z" clip-rule="evenodd"/>
    <path fill="#EC9501" fill-rule="evenodd" d="M241.787 81.19l-.324-.69h4.324l-.14.51-.329.99h-2.992l-.539-.81z" clip-rule="evenodd"/>
    <path fill="#D03118" d="M239.263 82.367a1 1 0 0 1 .941-.915l7.05-.393a1 1 0 0 1 1.056.998V92.5a1 1 0 0 1-1 1h-7.886a1 1 0 0 1-.996-1.083l.835-10.05z"/>
    <rect width="8.975" height="12" x="239.335" y="81" fill="#FFA000" rx="1"/>
    <path fill="#DFE6E9" fill-rule="evenodd" d="M235.483 14.523c-1.893 2.233-3.128 6.07-3.128 12.477h-1.995c0-6.593 1.258-11.006 3.603-13.773 2.38-2.807 5.71-3.727 9.361-3.727 1.373 0 3.468.128 5.296.522.909.197 1.811.471 2.536.864 1.274.69 1.455 1.676 1.642 2.614-.003-.013-1.496-.5-2.59-.855-.486-.263-1.18-.489-2.008-.667-1.646-.356-3.59-.478-4.876-.478-3.329 0-5.983.83-7.841 3.023z" clip-rule="evenodd"/>
    <ellipse cx="323.103" cy="80" fill="#D8E2E7" rx="3.989" ry="4"/>
    <path fill="#DB371D" d="M272.244 97c-1.995-.5-3.989-1-3.491-7l-3.49 8 6.981-1z"/>
    <path stroke="#C6331C" d="M251.302 71h7.977"/>
    <ellipse cx="138.615" cy="88" fill="#9D9191" fill-opacity=".4" rx="9.972" ry="10"/>
    <ellipse cx="137.618" cy="87" fill="#fff" rx="9.972" ry="10"/>
    <ellipse cx="336.066" cy="49" fill="#9D9191" fill-opacity=".4" rx="9.972" ry="10"/>
    <ellipse cx="335.069" cy="48" fill="#fff" rx="9.972" ry="10"/>
    <path fill="#F04B32" fill-rule="evenodd" d="M340.059 44.822a.622.622 0 1 0-.881-.881l-2.971 2.97a1 1 0 0 1-1.414 0l-2.971-2.97a.624.624 0 0 0-.882.88l2.971 2.972a1 1 0 0 1 0 1.414l-2.971 2.971a.624.624 0 0 0 .882.881l2.971-2.97a1 1 0 0 1 1.414 0l2.971 2.97a.623.623 0 1 0 .881-.88l-2.971-2.972a1 1 0 0 1 0-1.414l2.971-2.971z" clip-rule="evenodd"/>
    <rect width="9.972" height="11" x="278.227" y="12" fill="#FF9B94" rx="1"/>
    <rect width="9.972" height="11" x="300.166" y="27" fill="#FF9B94" rx="1"/>
    <rect width="9.972" height="11" x="286.205" y="46" fill="#FF9B94" rx="1"/>
    <rect width="9.972" height="11" x="318.116" y="6" fill="#FF9B94" rx="1"/>
    <rect width="9.972" height="11" x="347.036" y="46" fill="#FF9B94" rx="1"/>
    <rect width="13.961" height="15" x="189.474" y="24" fill="#FF9B94" rx="1"/>
    <path fill="#F6A928" d="M242.327 82.5a.5.5 0 0 1 .5-.5h2.988a.5.5 0 0 1 .5.5v4a.5.5 0 0 1-.5.5h-2.988a.5.5 0 0 1-.5-.5v-4z"/>
    <path stroke="#F6A928" stroke-linecap="round" d="M240.332 89h6.981M240.332 91h6.981"/>
    <ellipse cx="242.327" cy="66" fill="#D03118" rx=".997" ry="1"/>
    <ellipse cx="242.327" cy="57" fill="#D03118" rx=".997" ry="1"/>
    <ellipse cx="242.327" cy="97" fill="#D03118" rx=".997" ry="1"/>
</svg>
